<svg width="1200" height="630" xmlns="http://www.w3.org/2000/svg">
  <defs>
    <linearGradient id="bg" x1="0%" y1="0%" x2="100%" y2="100%">
      <stop offset="0%" style="stop-color:#f97316;stop-opacity:1" />
      <stop offset="100%" style="stop-color:#ea580c;stop-opacity:1" />
    </linearGradient>
  </defs>
  <rect width="1200" height="630" fill="url(#bg)"/>
  <rect x="50" y="50" width="1100" height="530" rx="20" fill="white" opacity="0.95"/>

  <!-- Logo Area -->
  <circle cx="150" cy="150" r="40" fill="#f97316"/>
  <text x="150" y="160" text-anchor="middle" fill="white" font-size="24" font-weight="bold">S</text>

  <!-- Main Text -->
  <text x="250" y="130" fill="#1f2937" font-size="36" font-weight="bold">Shop Name Boards</text>
  <text x="250" y="170" fill="#6b7280" font-size="24">Best Marketing Agency India</text>

  <!-- Service Icons -->
  <rect x="100" y="250" width="100" height="80" rx="10" fill="#dbeafe"/>
  <text x="150" y="275" text-anchor="middle" fill="#2563eb" font-size="12">ACRYLIC</text>
  <text x="150" y="295" text-anchor="middle" fill="#2563eb" font-size="12">BOARDS</text>
  <text x="150" y="315" text-anchor="middle" fill="#2563eb" font-size="16">₹999+</text>

  <rect x="250" y="250" width="100" height="80" rx="10" fill="#dcfce7"/>
  <text x="300" y="275" text-anchor="middle" fill="#16a34a" font-size="12">LED</text>
  <text x="300" y="295" text-anchor="middle" fill="#16a34a" font-size="12">SIGNS</text>
  <text x="300" y="315" text-anchor="middle" fill="#16a34a" font-size="16">₹2999+</text>

  <rect x="400" y="250" width="100" height="80" rx="10" fill="#fef3c7"/>
  <text x="450" y="275" text-anchor="middle" fill="#d97706" font-size="12">ACP</text>
  <text x="450" y="295" text-anchor="middle" fill="#d97706" font-size="12">3D LETTERS</text>
  <text x="450" y="315" text-anchor="middle" fill="#d97706" font-size="16">₹1499+</text>

  <!-- Features -->
  <text x="600" y="280" fill="#374151" font-size="18" font-weight="bold">✓ Free Design &amp; Installation</text>
  <text x="600" y="310" fill="#374151" font-size="18" font-weight="bold">✓ 15+ Years Experience</text>
  <text x="600" y="340" fill="#374151" font-size="18" font-weight="bold">✓ 5000+ Happy Customers</text>

  <!-- Call to Action -->
  <rect x="100" y="400" width="1000" height="80" rx="40" fill="#f97316"/>
  <text x="600" y="430" text-anchor="middle" fill="white" font-size="24" font-weight="bold">Professional Signage Advertisement Services</text>
  <text x="600" y="460" text-anchor="middle" fill="white" font-size="20">Pan India • Free Quotes • Quick Installation</text>

  <!-- Website -->
  <text x="600" y="550" text-anchor="middle" fill="#6b7280" font-size="18">www.shopnameboards.com</text>
</svg>